<svg xmlns="http://www.w3.org/2000/svg" width="512" height="512" viewBox="0 0 512 512" version="1.1"><path d="M 51.104 84.546 C 33.168 88.437, 15.358 102.435, 7.268 119 C 1.063 131.705, -0.002 138.706, 0.010 166.708 C 0.019 189.604, 0.108 190.691, 2.381 195.571 C 6.198 203.769, 15.758 210, 24.520 210 C 27.337 210, 27.813 210.432, 28.866 213.947 C 30.365 218.949, 35.010 223.631, 39.791 224.959 C 41.831 225.525, 48.510 225.991, 54.632 225.994 L 65.765 226 69.669 229.904 C 75.117 235.352, 79.013 236.148, 98.530 235.796 C 107.590 235.633, 115.002 235.836, 115.001 236.247 C 114.998 238.037, 122.851 245.472, 126.500 247.134 C 129.960 248.710, 133.269 248.953, 151 248.934 C 165.793 248.918, 172.572 248.530, 175.350 247.539 C 179.101 246.202, 179.315 246.254, 183.624 249.543 C 186.057 251.400, 189.724 253.385, 191.774 253.954 C 197.004 255.407, 241.762 255.319, 246.101 253.847 C 247.970 253.213, 250.773 251.807, 252.328 250.723 L 255.157 248.752 260.828 251.626 L 266.500 254.500 291.380 254.800 C 318.849 255.131, 321.832 254.677, 328.875 249.099 C 332.608 246.143, 332.691 246.127, 336.996 247.611 C 340.441 248.797, 345.628 249.046, 361.923 248.805 C 385.405 248.457, 387.999 247.752, 393.500 240.226 L 396.500 236.122 413.384 236.061 C 432.893 235.990, 436.878 235.122, 442.226 229.774 L 446 226 457.788 226 C 468.027 226, 470.162 225.704, 474.030 223.750 C 478.814 221.333, 483 216.080, 483 212.492 C 483 210.552, 483.662 210.211, 488.372 209.725 C 495.107 209.030, 500.741 206.198, 504.970 201.382 C 508.851 196.961, 510.955 192.307, 511.118 187.782 L 511.237 184.500 512 187.500 C 512.420 189.150, 512.764 179.025, 512.766 165 C 512.767 150.975, 512.531 140.400, 512.242 141.500 C 511.906 142.780, 511.237 141.186, 510.385 137.072 C 505.281 112.437, 483.870 91.254, 457.740 84.990 C 449.908 83.112, 445.724 83.014, 373.208 83.007 C 288.915 82.999, 288.309 83.038, 274.500 89.315 C 270.650 91.065, 264.768 94.556, 261.429 97.073 L 255.358 101.649 251.429 98.242 C 246.321 93.812, 237.153 88.751, 229 85.859 C 222.568 83.577, 221.934 83.550, 168.419 83.229 C 117.566 82.924, 114.210 83.012, 112.172 84.703 C 110.981 85.691, 109.727 87.944, 109.386 89.710 C 108.867 92.396, 109.262 93.416, 111.806 95.960 L 114.846 99 165.673 99.024 C 196.909 99.039, 218.224 99.446, 220.972 100.079 C 229.762 102.105, 238.057 106.960, 245.335 114.340 C 254.674 123.809, 256.416 123.860, 265.261 114.927 C 272.435 107.683, 280.490 102.945, 289.644 100.584 C 298.597 98.276, 446.474 98.191, 455.297 100.489 C 469.052 104.072, 483.637 115.212, 489.862 126.892 C 495.150 136.813, 496 142.129, 496 165.260 C 496 191.403, 495.019 194, 485.145 194 C 480.713 194, 481.165 194.873, 478.953 182.054 C 477.703 174.811, 475.330 169.559, 471.834 166.298 C 464.191 159.169, 450.473 159.343, 442.828 166.666 L 440.156 169.225 438.158 165.310 C 433.767 156.703, 426.245 151.863, 416.207 151.186 C 405.224 150.445, 394.947 156.392, 390.709 165.940 L 388.738 170.380 386.855 166.709 C 378.283 150, 354.789 145.631, 340.612 158.111 C 335.804 162.343, 331.557 169.981, 330.388 176.500 C 329.699 180.340, 329.600 180.135, 327.928 171.399 C 325.738 159.966, 322.506 153.540, 316.007 147.696 C 308.604 141.041, 301.694 138.700, 291 139.227 C 284.379 139.553, 281.384 140.218, 277.454 142.236 C 266.665 147.775, 259.981 157.602, 257.889 171 C 257.245 175.125, 256.397 178.862, 256.005 179.304 C 255.613 179.746, 254.737 176.596, 254.059 172.304 C 251.563 156.504, 243.664 145.656, 231.247 140.975 C 223.067 137.891, 210.735 138.499, 203.216 142.357 C 192.471 147.870, 186.070 157.268, 183.901 170.715 C 182.792 177.587, 181.012 180.668, 180.990 175.750 C 180.974 172.118, 176.521 163.588, 172.588 159.655 C 167.320 154.387, 161.551 151.775, 154 151.239 C 142.002 150.387, 131.891 155.342, 126.500 164.717 C 124.850 167.586, 123.253 169.948, 122.951 169.967 C 122.649 169.985, 121.872 168.537, 121.224 166.750 C 119.360 161.609, 114.445 156.401, 108.805 153.590 C 95.890 147.154, 78.532 152.938, 73.380 165.395 L 71.584 169.738 68.572 166.726 C 58.369 156.523, 40.211 160.420, 34.681 174 C 33.897 175.925, 32.667 181.213, 31.947 185.750 L 30.640 194 26.770 194 C 21.629 194, 17.442 191.707, 16.229 188.228 C 15.015 184.745, 16.322 138.905, 17.763 134.442 C 23.183 117.651, 36.463 104.889, 53.131 100.453 C 56.537 99.546, 63.547 99.019, 72.300 99.012 C 89.796 98.997, 93 97.660, 93 90.373 C 93 89.018, 91.895 86.805, 90.545 85.455 C 88.145 83.054, 87.752 83.002, 72.795 83.079 C 63.802 83.126, 54.865 83.731, 51.104 84.546 M 0.435 166 C 0.435 180.025, 0.575 185.763, 0.747 178.750 C 0.919 171.738, 0.919 160.263, 0.747 153.250 C 0.575 146.238, 0.435 151.975, 0.435 166 M 212.500 155.445 C 206.709 157.541, 201.356 163.942, 200.064 170.314 C 197.420 183.353, 190 227.803, 190 230.603 C 190 232.645, 190.913 234.640, 192.636 236.364 L 195.273 239 218.713 239 L 242.154 239 245.077 236.077 C 246.685 234.469, 248 232.255, 248 231.156 C 248 230.057, 245.528 215.060, 242.507 197.829 C 237.637 170.058, 236.700 166.056, 234.257 162.589 C 229.430 155.741, 220.124 152.685, 212.500 155.445 M 286.684 155.410 C 284.585 156.180, 281.949 157.640, 280.826 158.655 C 275.484 163.483, 274.889 165.466, 269.388 196.814 C 266.426 213.691, 264.002 228.772, 264.001 230.327 C 264 232.119, 265.070 234.224, 266.923 236.077 L 269.846 239 293 239 L 316.154 239 319.077 236.077 C 320.685 234.469, 321.994 232.107, 321.987 230.827 C 321.951 224.441, 311.032 166.739, 309.298 163.770 C 305.008 156.426, 294.502 152.541, 286.684 155.410 M 95 166.677 C 91.490 167.775, 88.775 169.551, 87.789 171.394 C 85.844 175.029, 79.086 216.292, 80.120 218.224 C 80.969 219.811, 82.763 220, 97 220 C 111.157 220, 113.031 219.805, 113.841 218.250 C 114.452 217.078, 113.476 209.241, 110.890 194.533 C 107.337 174.323, 106.807 172.353, 104.264 169.902 C 101.424 167.164, 97.647 165.849, 95 166.677 M 355.500 167.545 C 353.300 168.302, 350.503 170.165, 349.285 171.683 C 346.717 174.885, 346.450 176.047, 341.361 206.163 C 336.417 235.426, 334.771 233, 359.573 233 C 369.618 233, 378.583 232.714, 379.495 232.364 C 383.105 230.978, 382.990 227.736, 378.400 201.330 C 375.393 184.031, 373.326 174.695, 372.143 173.062 C 367.963 167.293, 361.985 165.311, 355.500 167.545 M 411.686 167.017 C 408.098 168.094, 406.013 169.834, 404.944 172.647 C 404.478 173.873, 402.459 184.371, 400.457 195.976 C 397.533 212.930, 397.060 217.368, 398.052 218.563 C 399.949 220.849, 429.833 220.217, 431.318 217.860 C 432.630 215.778, 425.621 174.620, 423.367 171.166 C 422.154 169.308, 416.055 165.698, 414.782 166.086 C 414.627 166.133, 413.234 166.552, 411.686 167.017 M 142.596 170.050 C 140.685 171.727, 138.662 174.540, 138.101 176.300 C 137.539 178.060, 135.211 190.415, 132.928 203.755 C 129.012 226.632, 128.869 228.151, 130.411 230.505 L 132.046 233 151.500 233 L 170.954 233 172.561 230.547 C 174.066 228.250, 173.909 226.584, 170.085 204.297 C 165.008 174.713, 164.776 173.889, 160.453 170.093 C 157.441 167.448, 156.144 167, 151.500 167 C 146.872 167, 145.556 167.451, 142.596 170.050 M 50.197 178.263 C 49.364 179.267, 44 206.053, 44 209.210 C 44 209.644, 48.500 210, 54 210 C 61.432 210, 64 209.673, 64 208.726 C 64 204.843, 58.982 179.684, 57.963 178.455 C 56.478 176.666, 51.622 176.546, 50.197 178.263 M 453.168 178.750 C 452.671 179.713, 451.275 186.350, 450.064 193.500 C 448.854 200.650, 447.639 207.287, 447.365 208.250 C 446.911 209.838, 447.848 210, 457.500 210 C 467.152 210, 468.089 209.838, 467.635 208.250 C 467.361 207.287, 466.146 200.650, 464.936 193.500 C 463.725 186.350, 462.329 179.713, 461.832 178.750 C 461.239 177.599, 459.756 177, 457.500 177 C 455.244 177, 453.761 177.599, 453.168 178.750 M 40.594 257.041 C 36.328 258.317, 31.117 263.853, 29.889 268.411 C 28.863 272.222, 29.028 274.044, 31.587 287.112 C 32.091 289.687, 32.002 289.731, 25.299 290.212 C 14.504 290.987, 6.343 296.530, 2.159 305.927 C -0.243 311.324, -0.813 363.365, 1.414 373.965 C 6.814 399.669, 27.793 420.713, 54.291 427.007 C 62.710 429.006, 65.071 429.026, 261.153 428.765 L 459.500 428.500 466 426.197 C 474.040 423.349, 477.431 419.951, 476.589 415.587 C 475.299 408.895, 471.016 407.869, 459 411.373 C 454.037 412.820, 434.408 412.977, 257.960 412.988 C 42.950 413.001, 57.727 413.425, 44.758 406.878 C 36.832 402.877, 26.108 392.555, 22.138 385.108 C 16.601 374.719, 16 370.375, 16 340.740 C 16 306.866, 16.319 306, 28.813 306 C 34.470 306, 34.817 306.144, 35.996 308.989 C 37.654 312.994, 43.870 318.472, 48.481 319.994 C 54.064 321.836, 62.142 320.834, 66.859 317.712 L 70.838 315.079 71.518 319.290 C 71.893 321.605, 73.077 325.525, 74.151 328 C 81.501 344.947, 103.289 349.313, 116.644 336.516 C 120.662 332.667, 121.076 332.486, 121.473 334.403 C 121.712 335.556, 122.396 338.965, 122.992 341.977 C 127.557 365.036, 154.797 374.409, 172.379 358.972 C 174.456 357.148, 177.401 353.476, 178.922 350.812 L 181.688 345.969 183.371 356.103 C 185.378 368.187, 188.717 375.562, 194.660 381.040 C 199.936 385.904, 203.020 386.134, 207.179 381.975 C 210.853 378.301, 210.479 375.380, 205.651 370.035 C 203.887 368.083, 201.903 365.139, 201.243 363.493 C 199.809 359.922, 190 303.931, 190 299.322 C 190 297.371, 190.946 295.011, 192.412 293.306 L 194.823 290.500 217.359 290.197 C 242.322 289.862, 244.642 290.307, 246.947 295.872 C 248.006 298.429, 247.465 302.956, 243.025 328.669 C 240.192 345.076, 237.418 359.961, 236.860 361.747 C 236.303 363.533, 234.333 366.806, 232.484 369.020 C 230.634 371.234, 228.840 373.928, 228.498 375.006 C 227.620 377.771, 230.027 382.247, 233.213 383.773 C 237.055 385.615, 242.022 383.315, 246.057 377.827 C 250.419 371.894, 251.921 368.046, 253.979 357.527 C 255.244 351.063, 255.908 349.210, 256.317 351 C 256.631 352.375, 257.596 356.875, 258.461 361 C 261.219 374.153, 267.652 382.598, 278.954 387.899 C 283.565 390.061, 285.933 390.500, 293 390.500 C 300.122 390.500, 302.423 390.067, 307.196 387.830 C 310.330 386.361, 314.853 383.199, 317.249 380.804 C 324.014 374.039, 326.246 368.346, 329.469 349.633 L 330.135 345.765 332.242 350.023 C 339.197 364.082, 357.604 370.609, 371.500 363.945 C 381.700 359.054, 387.737 350.062, 389.489 337.148 L 390.216 331.795 394.358 335.789 C 400.907 342.104, 404.320 343.470, 413.578 343.486 C 420.835 343.499, 422.154 343.193, 426.544 340.479 C 433.241 336.338, 437.576 330.365, 439.030 323.273 C 439.681 320.098, 440.376 316.941, 440.573 316.257 C 440.820 315.400, 442.060 315.780, 444.567 317.481 C 454.625 324.307, 469.276 320.782, 474.433 310.296 L 476.500 306.093 483.316 306.047 C 496.718 305.955, 496.850 306.318, 496.307 341.880 C 496.076 357.071, 495.415 371.750, 494.839 374.500 C 494.263 377.250, 491.981 383.144, 489.769 387.599 C 486.004 395.179, 485.835 395.883, 487.132 398.590 C 489.102 402.701, 493.291 404.537, 497.099 402.959 C 502.353 400.783, 508.072 388.120, 511.986 370 C 512.791 366.271, 513.065 355.806, 512.837 337.500 C 512.516 311.820, 512.388 310.256, 510.201 305.512 C 505.621 295.575, 498.676 290.936, 487.286 290.205 L 479.783 289.723 480.437 286.112 C 480.797 284.125, 481.342 279.125, 481.648 275 C 482.149 268.257, 481.967 267.147, 479.844 264 C 478.546 262.075, 475.462 259.461, 472.992 258.192 C 468.836 256.056, 467.479 255.906, 454.832 256.192 C 442.803 256.463, 440.823 256.752, 438.327 258.599 C 436.363 260.052, 434.875 260.458, 433.495 259.919 C 432.398 259.491, 423.400 259.119, 413.500 259.092 C 393.554 259.039, 389.818 259.892, 384.959 265.608 L 382.500 268.500 360 268.500 C 335.519 268.500, 334.214 268.754, 327.771 274.781 C 325.134 277.247, 324.897 277.286, 320.771 275.917 C 317.583 274.859, 310.669 274.500, 293.500 274.500 C 268.177 274.500, 264.918 274.888, 259.530 278.544 C 255.909 281.001, 255.822 281.010, 253.179 279.192 C 247.484 275.275, 245.033 274.960, 218.990 274.802 C 198.065 274.675, 192.869 274.922, 189.979 276.177 C 186.609 277.641, 186.384 277.610, 184.761 275.458 C 183.828 274.222, 180.913 272.150, 178.282 270.855 C 173.716 268.606, 172.497 268.496, 151.298 268.407 L 129.096 268.314 126.132 265.141 C 120.987 259.633, 118.046 258.992, 98.282 259.070 C 88.502 259.109, 79.660 259.471, 78.632 259.875 C 77.443 260.342, 75.111 259.771, 72.213 258.304 C 68.170 256.258, 66.310 256.010, 55.581 256.086 C 48.936 256.133, 42.192 256.563, 40.594 257.041 M 45 272.569 C 45 275.442, 50.476 302.794, 51.243 303.750 C 52.630 305.481, 57.491 305.318, 59.008 303.490 C 60.135 302.132, 64.981 278.055, 64.995 273.750 C 64.999 272.200, 63.859 272, 55 272 C 49.500 272, 45 272.256, 45 272.569 M 446.406 274.750 C 446.717 276.262, 447.919 282.896, 449.079 289.491 C 451.593 303.791, 452.134 305, 456.012 305 C 460.311 305, 461.459 302.388, 464.256 286.250 L 466.725 272 456.283 272 L 445.841 272 446.406 274.750 M 81.269 276.742 C 80.601 278.482, 86.247 314.614, 88.143 320.734 C 88.694 322.513, 90.298 324.876, 91.707 325.984 C 96.604 329.836, 105.657 327.766, 107.830 322.297 C 108.441 320.759, 110.554 310.125, 112.524 298.667 C 115.311 282.467, 115.846 277.519, 114.931 276.417 C 114.007 275.303, 110.354 275, 97.846 275 C 83.645 275, 81.865 275.187, 81.269 276.742 M 396.274 276.728 C 395.671 278.300, 397.219 288.768, 401.711 313.500 C 403.022 320.720, 403.889 323.043, 406.096 325.250 C 411.009 330.162, 420.383 328.459, 422.872 322.201 C 423.463 320.716, 425.574 310.144, 427.562 298.710 C 430.433 282.205, 430.928 277.619, 429.967 276.460 C 428.997 275.292, 425.573 275, 412.846 275 C 398.694 275, 396.864 275.191, 396.274 276.728 M 132 286 C 130.900 287.100, 130 288.682, 130 289.516 C 130 290.349, 132.031 302.551, 134.513 316.630 C 139.412 344.413, 140.151 346.420, 146.620 349.490 C 153.945 352.966, 162.586 349.399, 165.401 341.737 C 166.705 338.189, 175 292.812, 175 289.229 C 175 288.596, 174.015 287.160, 172.811 286.039 C 170.774 284.141, 169.357 284, 152.311 284 C 135.333 284, 133.854 284.146, 132 286 M 339.223 285.557 C 337.745 286.592, 337 288.144, 337 290.190 C 337 294.471, 344.808 338.880, 346.157 342.270 C 348.498 348.154, 356.410 352.118, 362.676 350.545 C 364.155 350.174, 366.998 348.212, 368.993 346.185 L 372.622 342.500 376.836 318 C 379.153 304.525, 381.038 292.063, 381.025 290.307 C 380.981 284.602, 378.879 284, 359 284 C 344.730 284, 341.029 284.291, 339.223 285.557 M 269.357 290.992 C 266.333 292.212, 263.997 295.920, 264.015 299.473 C 264.023 301.138, 266.404 316.062, 269.308 332.638 C 273.818 358.387, 274.971 363.358, 277.227 366.767 C 281.907 373.839, 292.372 376.960, 300.298 373.649 C 304.331 371.964, 309.447 366.238, 310.854 361.836 C 311.441 360.001, 314.240 345.106, 317.075 328.735 C 324.169 287.775, 325.545 289.966, 292.800 290.063 C 281.085 290.098, 270.536 290.516, 269.357 290.992 M 0.439 342 C 0.439 357.125, 0.578 363.313, 0.748 355.750 C 0.917 348.188, 0.917 335.813, 0.748 328.250 C 0.578 320.688, 0.439 326.875, 0.439 342" stroke="none" fill="#013a37" fill-rule="evenodd"/></svg>