<svg xmlns="http://www.w3.org/2000/svg" width="512" height="512" viewBox="0 0 512 512" version="1.1"><path d="M 400.198 1.574 C 398.962 2.440, 396.424 6.180, 394.558 9.885 C 388.519 21.878, 378.854 35.285, 369.334 44.878 C 360.724 53.552, 359.796 54.209, 356.955 53.641 C 328.975 48.045, 303.518 52.994, 278.801 68.837 C 265.231 77.534, 259.319 79.530, 247.500 79.403 C 236.110 79.281, 230.024 77.165, 217.226 68.874 C 191.625 52.290, 164.522 47.482, 136.381 54.533 C 112.297 60.568, 90.714 76.163, 75.998 98.164 C 61.095 120.444, 51.672 150.677, 50.334 180.500 C 49.794 192.537, 49.528 193.895, 46.752 198.838 C 39.715 211.363, 29.727 221.317, 19.248 226.248 C 12.469 229.438, 9 232.939, 9 236.588 C 9 241.527, 11.260 244.109, 18.984 247.992 C 30.965 254.016, 41.314 264.689, 47.967 277.884 C 51.056 284.011, 54.315 287, 57.907 287 C 63.132 287, 65.571 285.070, 69.719 277.654 C 71.920 273.719, 74.070 270.500, 74.499 270.500 C 74.927 270.500, 77.029 273.381, 79.170 276.902 C 82.792 282.859, 90.103 293.407, 100.244 307.306 L 104.480 313.112 104.208 322.905 C 103.974 331.299, 104.208 333.035, 105.839 335.049 C 108.391 338.201, 114.169 338.276, 117.247 335.197 C 119.177 333.268, 119.498 331.688, 119.840 322.444 C 120.323 309.397, 119.147 305.873, 110.545 294.589 C 103.156 284.897, 93.621 270.724, 89.008 262.576 L 85.654 256.652 89.077 253.773 C 90.960 252.190, 95.226 249.586, 98.559 247.987 C 105.349 244.729, 107.540 242.718, 108.503 238.858 C 109.595 234.484, 106.609 230.161, 100.680 227.528 C 88.331 222.046, 76.972 210.471, 68.987 195.232 C 65.719 188.996, 65.705 188.910, 66.275 178.232 C 67.341 158.244, 73.470 135.649, 82.669 117.798 C 102.637 79.048, 141.554 59.984, 181 69.631 C 189.185 71.633, 201.868 77.478, 209.982 82.988 C 222.731 91.646, 234.178 95.376, 248 95.376 C 261.822 95.376, 273.269 91.646, 286.018 82.988 C 298.988 74.180, 313.519 68.872, 328.500 67.469 C 335.135 66.848, 335.384 66.899, 333.279 68.443 C 329.779 71.011, 328.470 76.795, 330.363 81.326 C 331.721 84.577, 333.004 85.553, 340.366 88.939 C 345.012 91.074, 351.644 94.662, 355.105 96.911 C 363.493 102.362, 367.731 102.355, 370.558 96.887 C 373.435 91.324, 370.320 87.149, 358.135 80.240 L 352.769 77.197 355.635 75.447 C 365.836 69.214, 370.168 65.924, 377.710 58.683 C 387.734 49.060, 394.055 41.313, 401.296 29.781 L 406.593 21.343 410.312 27.631 C 422.173 47.683, 443.010 68.399, 459.448 76.483 C 460.101 76.804, 459.982 77.236, 459.132 77.623 C 458.380 77.965, 453.876 80.846, 449.124 84.025 C 435.391 93.211, 420.113 110.047, 410.002 127.138 L 406.667 132.775 401.257 124.138 C 393.924 112.432, 392.468 111, 387.898 111 C 385.035 111, 383.654 111.625, 382.073 113.635 C 379.116 117.394, 379.472 119.707, 384.052 126.500 C 386.277 129.800, 390.366 136.665, 393.139 141.756 C 395.911 146.847, 399.139 151.684, 400.312 152.506 C 403.102 154.460, 409.959 154.417, 412.800 152.428 C 414.034 151.563, 416.399 148.171, 418.056 144.890 C 419.712 141.608, 421.452 139.161, 421.921 139.451 C 423.242 140.268, 426.822 154.496, 428.488 165.544 C 434.662 206.512, 420.811 248.270, 385.784 294.283 C 376.361 306.663, 375.595 309.066, 376.329 323.970 C 377.095 339.503, 379.316 363.184, 382.102 385.500 C 385.086 409.400, 384.485 434.410, 380.617 447.307 C 376.221 461.965, 369.314 473.686, 358.986 484.014 C 346.371 496.629, 334.472 499.693, 324.536 492.885 C 319.616 489.513, 316.293 483.705, 314.389 475.147 C 312.984 468.830, 312.799 464.057, 313.268 446.208 C 314.451 401.189, 309.137 380.950, 291.551 363.500 C 280.117 352.154, 268.968 347.043, 252.286 345.501 C 228.325 343.285, 202.741 358.023, 192.171 380.130 C 184.292 396.610, 181.976 412.920, 182.745 446.500 C 183.282 469.957, 182.510 476.550, 178.242 484.967 C 172.962 495.377, 161.853 499.169, 150.964 494.278 C 136.273 487.680, 120.396 466.228, 114.863 445.500 C 111.589 433.236, 111.183 407.673, 113.914 385.787 C 116.695 363.510, 116.657 361.662, 113.365 359.073 C 109.953 356.389, 106.746 356.446, 103.533 359.250 C 101.105 361.368, 100.809 362.699, 98.480 382 C 93.457 423.635, 96 447.786, 107.771 470.252 C 116.738 487.366, 130.105 501.480, 143.672 508.159 C 149.997 511.273, 151.138 511.500, 160.479 511.500 C 169.979 511.500, 170.826 511.323, 176.768 508.101 C 184.460 503.930, 189.303 498.713, 193.185 490.418 C 198.185 479.734, 199.258 470.691, 198.574 445 C 197.769 414.735, 199.549 401.104, 206.107 387.302 C 214.778 369.054, 234.841 358.608, 255.171 361.755 C 273.729 364.627, 288.031 377.455, 293.400 396.043 C 296.937 408.290, 297.316 412.743, 297.429 443.500 C 297.527 470.082, 297.800 475.416, 299.345 480.929 C 303.168 494.566, 309.021 502.564, 319.232 508.101 C 325.178 511.325, 326.017 511.500, 335.552 511.500 C 345.120 511.500, 345.962 511.323, 353.059 507.815 C 372.101 498.404, 389.741 474.421, 396.687 448.500 C 399.211 439.082, 399.369 437.190, 399.401 416 C 399.426 399.474, 398.957 390.181, 397.635 381 C 394.852 361.674, 391.127 317.043, 392.034 313.881 C 392.472 312.354, 395.559 307.520, 398.894 303.139 C 415.830 280.891, 430.603 254.356, 437.388 233.999 C 448.931 199.362, 448.633 168.685, 436.393 131.741 L 432.829 120.982 436.927 116.087 C 446.910 104.164, 458.173 95.588, 472.502 88.999 C 480.027 85.539, 481.274 84.592, 482.665 81.278 C 484.048 77.984, 484.075 76.988, 482.876 73.500 C 481.588 69.756, 480.789 69.148, 470.383 64 C 464.268 60.975, 456.741 56.541, 453.656 54.147 C 441.330 44.580, 429.165 29.511, 419.827 12.244 C 417.073 7.153, 413.861 2.316, 412.688 1.494 C 409.897 -0.461, 403.041 -0.417, 400.198 1.574 M 67.315 22.985 C 64.560 24.123, 63 26.996, 63 30.934 C 63 33.779, 62.744 34, 59.455 34 C 53.023 34, 48.654 41.362, 52.282 46.087 C 54.021 48.352, 57.454 50, 60.434 50 C 62.700 50, 63 50.409, 63 53.500 C 63 58.098, 65.902 61, 70.500 61 C 75.040 61, 78 58.092, 78 53.632 C 78 50.426, 78.205 50.236, 82.240 49.695 C 84.885 49.340, 87.142 48.308, 88.240 46.952 C 92.459 41.741, 88.458 34, 81.545 34 C 78.100 34, 78 33.892, 78 30.155 C 78 24.387, 72.637 20.789, 67.315 22.985 M 478.734 137.994 C 476.922 139.420, 475.789 141.469, 475.372 144.072 C 474.819 147.533, 474.419 148, 472.007 148 C 462.048 148, 461.111 162.035, 470.965 163.610 C 474.396 164.159, 474.891 164.605, 475.466 167.669 C 476.335 172.300, 479.229 175, 483.326 175 C 487.599 175, 491 171.537, 491 167.186 C 491 164.295, 491.285 164, 494.077 164 C 497.993 164, 503 159.248, 503 155.531 C 503 151.684, 498.865 148, 494.545 148 C 491.182 148, 491 147.826, 491 144.611 C 491 137.694, 483.950 133.892, 478.734 137.994 M 52.574 218.209 C 49.315 222.647, 43.617 228.754, 39.913 231.781 L 33.178 237.283 37.839 240.995 C 43.816 245.754, 51.859 254.319, 55.454 259.751 C 57 262.088, 58.543 263.988, 58.883 263.974 C 59.222 263.960, 61.075 261.620, 63 258.774 C 67.225 252.528, 74.964 244.467, 80.743 240.292 L 84.987 237.227 81.243 234.463 C 75.049 229.890, 69.143 223.880, 63.835 216.750 C 61.072 213.037, 58.741 210.031, 58.655 210.069 C 58.570 210.108, 55.833 213.770, 52.574 218.209 M 23.174 327.314 C 21.881 328.691, 21 330.920, 21 332.814 C 21 335.705, 20.715 336, 17.923 336 C 14.007 336, 9 340.752, 9 344.469 C 9 348.316, 13.135 352, 17.455 352 C 20.818 352, 21 352.174, 21 355.389 C 21 366.022, 34.937 366.502, 36.628 355.928 C 37.181 352.467, 37.581 352, 39.993 352 C 45.826 352, 49.555 346.216, 47.379 340.545 C 46.642 338.623, 41.898 336, 39.161 336 C 37.732 336, 37.047 335.066, 36.556 332.444 C 36.189 330.489, 35.014 328.014, 33.944 326.944 C 31.214 324.214, 25.916 324.396, 23.174 327.314" stroke="none" fill="#013a37" fill-rule="evenodd"/></svg>