<svg xmlns="http://www.w3.org/2000/svg" width="512" height="512" viewBox="0 0 512 512" version="1.1"><path d="M 189.763 68.565 C 187.049 70.038, 186.713 70.811, 185.474 78.453 C 183.756 89.046, 174.370 98, 164.982 98 C 161.259 98, 156.474 100.323, 155.621 102.545 C 153.220 108.801, 156.357 112.633, 165.428 114.525 C 169.239 115.320, 174.051 117.092, 176.123 118.463 C 181.029 121.709, 184.912 128.458, 185.699 135.107 C 186.446 141.410, 189.401 145, 193.844 145 C 198.493 145, 200.924 142.255, 201.955 135.842 C 202.456 132.731, 203.791 128.369, 204.923 126.150 C 208.308 119.516, 217.046 114.150, 224.639 114.044 C 228.697 113.987, 231.833 111.331, 232.614 107.290 C 233.497 102.718, 228.802 98.009, 223.327 97.978 C 212.729 97.917, 202 87.089, 202 76.455 C 202 73.800, 201.228 72.074, 199.077 69.923 C 195.822 66.668, 193.802 66.374, 189.763 68.565 M 189.982 102.519 L 186.571 106.038 190.286 109.752 L 194 113.467 197.567 109.900 L 201.133 106.333 197.467 102.667 C 195.450 100.650, 193.708 99, 193.596 99 C 193.484 99, 191.858 100.583, 189.982 102.519 M 377.465 129.952 C 374.215 131.269, 372.992 133.405, 372.001 139.496 C 370.099 151.182, 362.644 158.569, 351.182 160.124 C 344.386 161.046, 341.600 163.513, 341.600 168.607 C 341.600 172.703, 344.645 176, 348.429 176 C 352.683 176, 360.533 178.970, 364.120 181.937 C 368.513 185.571, 370.810 190.166, 372.032 197.768 C 373.093 204.366, 375.491 207, 380.436 207 C 384.192 207, 388 203.540, 388 200.128 C 388 195.218, 390.385 188.910, 393.711 185.024 C 397.934 180.091, 402.848 177.434, 409.523 176.476 C 415.777 175.578, 419 172.806, 419 168.326 C 419 164.094, 416.236 161.288, 411.306 160.515 C 397.637 158.374, 390.398 151.999, 388.526 140.453 C 387.214 132.366, 386.974 131.887, 383.497 130.434 C 381.609 129.645, 379.937 129.029, 379.782 129.063 C 379.627 129.098, 378.584 129.498, 377.465 129.952 M 68 142.570 C 53.768 146.291, 38.302 157.648, 31.491 169.380 C 21.417 186.731, 19.759 207.980, 26.869 228.607 C 30.705 239.738, 34.957 246.630, 43.854 256.140 L 51.208 264 39.278 264 C 21.801 264, 23 261.558, 23 297.140 C 23 325.650, 23 325.652, 25.314 327.826 C 28.389 330.714, 33.039 330.652, 35.826 327.686 C 37.926 325.450, 38 324.601, 38 302.686 L 38 280 53 280 L 68 280 68 303.326 L 68 326.651 70.492 328.992 C 73.687 331.994, 78.386 332.058, 81.306 329.141 C 83.421 327.027, 83.511 326.106, 83.801 303.474 L 84.103 280 99 280 L 113.897 280 114.199 303.474 C 114.489 326.106, 114.579 327.027, 116.694 329.141 C 119.614 332.058, 124.313 331.994, 127.508 328.992 L 130 326.651 130 303.326 L 130 280 145.500 280 L 161 280 161 303.066 C 161 316.199, 161.422 326.919, 161.979 327.961 C 164.292 332.282, 173.642 331.981, 175.350 327.529 C 175.708 326.598, 176 315.523, 176 302.918 L 176 280 191.500 280 L 207 280 207 303.326 L 207 326.651 209.492 328.992 C 212.687 331.994, 217.386 332.058, 220.306 329.141 C 222.421 327.027, 222.511 326.106, 222.801 303.474 L 223.103 280 238 280 L 252.897 280 253.199 303.474 C 253.489 326.106, 253.579 327.027, 255.694 329.141 C 258.614 332.058, 263.313 331.994, 266.508 328.992 L 269 326.651 269 303.326 L 269 280 283.500 280 L 298 280 298 331.500 L 298 383 168 383 L 38 383 38 367.174 C 38 351.925, 37.916 351.269, 35.686 349.174 C 32.611 346.286, 27.961 346.348, 25.174 349.314 C 23.130 351.491, 23 352.579, 23 367.570 L 23 383.512 18.250 385.710 C 11.425 388.869, 6.859 393.018, 3.466 399.144 C 0.794 403.969, 0.500 405.393, 0.500 413.500 C 0.500 420.833, 0.920 423.352, 2.767 427.100 C 5.852 433.362, 11.409 438.756, 18 441.887 L 23.500 444.500 151 444.782 C 221.125 444.937, 279.524 444.813, 280.775 444.506 C 286.917 443.002, 288.973 435.882, 284.545 431.455 L 282.091 429 155.013 429 C 14.703 429, 23.717 429.428, 18.440 422.510 C 16.227 419.609, 15.615 417.744, 15.615 413.900 C 15.615 408.368, 17.643 404.889, 22.990 401.250 L 26.296 399 178.153 399 L 330.010 399 371.005 378.498 L 412 357.995 412 372.253 L 412 386.511 369.497 407.755 L 326.994 429 318.108 429 C 308.010 429, 305.439 430.257, 304.386 435.710 C 303.867 438.396, 304.262 439.416, 306.806 441.960 C 309.789 444.943, 310.035 445, 319.885 445 L 329.924 445 375.978 422 L 422.033 399 464.562 399 L 507.091 399 509.545 396.545 L 512 394.091 512 367.618 L 512 341.145 509.365 339.073 C 506.790 337.047, 505.728 337, 462.861 337 L 418.991 337 373 360 C 327.151 382.929, 326.988 383, 320.504 383 L 314 383 314 327.565 C 314 291.631, 313.634 271.169, 312.961 269.397 C 311.683 266.036, 309.226 264.074, 306.241 264.032 C 303.985 264, 303.985 263.996, 306.951 258.742 C 308.583 255.849, 310.634 251.462, 311.508 248.992 C 313.584 243.129, 313.635 230.697, 311.613 223.742 C 307.876 210.888, 296.138 198.976, 283.299 195.011 C 277.063 193.085, 274.078 193, 212.349 193 L 147.909 193 145.455 195.455 C 142.346 198.563, 142.332 202.111, 145.413 205.694 L 147.826 208.500 213.163 209 C 277.891 209.495, 278.538 209.520, 282.568 211.678 C 287.340 214.232, 293.645 220.902, 295.502 225.360 C 300.948 238.435, 295.658 253.258, 283 260.398 L 277.500 263.500 182.500 263.500 L 87.500 263.500 80.500 261.282 C 64.867 256.329, 52.275 245.449, 44.930 230.550 C 30.655 201.592, 39.992 170.640, 66.322 159.639 L 69.888 158.149 69.330 162.865 C 68.210 172.322, 73.060 186.438, 80.243 194.627 C 87.007 202.339, 97.779 207.376, 110.110 208.594 C 117.577 209.332, 123.442 207.911, 125.008 204.986 C 126.545 202.113, 126.186 198.451, 124.117 195.896 C 122.515 193.918, 120.977 193.474, 113.806 192.916 C 104.131 192.164, 97.961 189.807, 93.200 185.046 C 85.205 177.051, 83.111 166.562, 87.381 155.890 C 90.540 147.994, 90.583 147.012, 87.927 143.635 C 86.075 141.280, 85.199 141.007, 79.677 141.066 C 76.280 141.102, 71.025 141.779, 68 142.570 M 376.703 164.792 L 372.995 168.589 376.748 172.055 L 380.500 175.520 384.175 171.890 L 387.850 168.259 384.130 164.627 L 380.411 160.995 376.703 164.792 M 428 368 L 428 383 462.500 383 L 497 383 497 368 L 497 353 462.500 353 L 428 353 428 368" stroke="none" fill="#013a37" fill-rule="evenodd"/></svg>